<?xml version="1.0" standalone="no"?>
<!DOCTYPE svg PUBLIC "-//W3C//DTD SVG 20010904//EN"
 "http://www.w3.org/TR/2001/REC-SVG-20010904/DTD/svg10.dtd">
<svg version="1.0" xmlns="http://www.w3.org/2000/svg"
 width="1788.000000pt" height="1788.000000pt" viewBox="0 0 1788.000000 1788.000000"
 preserveAspectRatio="xMidYMid meet">
<metadata>
Created by potrace 1.14, written by Peter Selinger 2001-2017
</metadata>
<g transform="translate(0.000000,1788.000000) scale(0.100000,-0.100000)"
fill="#000000" stroke="none">
<path d="M7028 15335 c-2 -1 -32 -5 -68 -8 -396 -36 -801 -229 -1095 -522
-163 -162 -266 -313 -389 -567 -143 -296 -202 -419 -254 -528 -27 -58 -82
-172 -122 -255 -40 -82 -97 -201 -126 -262 -129 -270 -244 -509 -367 -763 -23
-47 -42 -87 -42 -90 -1 -3 -29 -61 -62 -130 -33 -69 -90 -186 -125 -260 -36
-74 -92 -191 -126 -260 -33 -69 -82 -172 -110 -230 -27 -58 -83 -175 -125
-260 -41 -85 -99 -207 -130 -270 -30 -63 -90 -187 -132 -275 -42 -88 -94 -196
-115 -240 -35 -75 -82 -172 -245 -510 -97 -202 -190 -396 -242 -505 -25 -52
-79 -165 -120 -250 -42 -85 -97 -200 -123 -255 -26 -55 -80 -167 -120 -250
-96 -200 -240 -499 -350 -730 -26 -55 -81 -170 -123 -255 -41 -85 -98 -204
-127 -265 -29 -60 -89 -184 -133 -275 -43 -91 -92 -192 -107 -225 -15 -33 -64
-134 -108 -225 -104 -214 -193 -400 -252 -525 -26 -55 -89 -185 -140 -290 -51
-104 -105 -217 -120 -250 -15 -33 -63 -132 -105 -220 -43 -88 -101 -209 -130
-270 -29 -60 -85 -177 -125 -260 -40 -82 -89 -186 -110 -230 -21 -44 -79 -165
-130 -270 -129 -266 -157 -337 -178 -456 -44 -250 10 -498 156 -704 187 -264
476 -408 799 -399 248 7 462 100 639 278 85 86 119 132 173 236 162 312 365
521 639 659 102 51 241 102 322 117 14 2 48 9 75 14 28 6 75 12 105 15 30 2
879 5 1885 5 1948 1 1892 0 2041 48 134 44 265 126 372 233 39 40 72 75 72 79
0 4 11 20 25 36 40 46 123 222 144 304 54 216 41 410 -44 610 -42 101 -112
236 -152 298 -55 83 -187 211 -275 266 -79 49 -216 108 -278 120 -19 3 -46 9
-60 13 -14 4 -263 8 -555 10 -291 2 -771 4 -1065 6 -294 2 -548 6 -565 10
-131 31 -324 111 -355 148 -3 3 -12 10 -21 15 -40 22 -137 114 -189 179 -181
228 -246 514 -181 800 21 94 40 137 199 465 49 102 110 228 134 280 25 52 78
163 118 245 40 83 92 191 115 240 24 50 74 155 113 235 38 80 97 204 131 275
157 328 220 418 374 533 363 271 883 242 1208 -69 117 -111 149 -166 372 -629
130 -270 202 -421 248 -518 56 -118 131 -273 254 -527 48 -99 104 -216 125
-260 21 -44 70 -147 110 -230 40 -82 102 -211 137 -285 78 -163 145 -302 248
-515 43 -88 98 -203 122 -255 25 -52 79 -165 121 -250 41 -85 98 -204 127
-265 63 -133 148 -308 245 -510 40 -82 96 -199 125 -260 76 -160 166 -347 255
-530 43 -88 99 -205 125 -260 243 -511 293 -609 347 -692 235 -361 603 -608
1028 -692 183 -36 438 -34 626 4 180 37 277 71 449 156 151 74 275 158 395
266 66 59 99 94 201 213 74 85 167 247 289 505 74 155 163 339 255 530 37 77
90 187 118 245 27 58 82 170 120 250 39 80 71 147 72 150 0 3 22 48 47 100 25
52 76 158 113 235 37 77 98 203 135 280 37 77 90 187 118 245 48 102 114 239
242 505 34 72 86 180 115 240 29 61 84 175 122 255 39 80 94 195 123 255 29
61 84 175 122 255 39 80 92 190 118 245 26 55 82 172 125 260 43 88 97 201
120 250 23 50 73 153 110 230 118 246 270 562 365 760 32 66 90 188 130 270
40 83 94 195 120 250 54 114 138 289 265 550 48 99 103 214 122 255 19 41 64
136 100 210 36 74 90 187 120 250 31 63 89 185 130 270 42 85 97 200 123 255
54 113 136 285 232 485 36 74 88 182 116 240 27 58 75 157 106 220 31 63 56
119 56 123 0 5 10 23 22 40 13 18 22 34 22 37 -1 6 48 113 148 320 138 284
210 434 253 525 24 50 84 176 135 280 131 271 160 368 165 544 1 61 -8 159
-20 211 -3 14 -8 35 -11 48 -9 42 -52 150 -84 209 -163 297 -461 479 -795 488
-281 7 -529 -93 -715 -292 -104 -110 -133 -161 -340 -598 -26 -55 -77 -161
-112 -235 -36 -74 -90 -187 -121 -250 -30 -63 -84 -176 -120 -250 -35 -74 -92
-191 -125 -260 -83 -174 -172 -360 -254 -530 -39 -80 -87 -181 -108 -225 -21
-44 -77 -161 -125 -260 -48 -99 -102 -211 -120 -250 -18 -38 -81 -168 -139
-289 -58 -120 -106 -220 -106 -221 0 -1 -50 -105 -111 -231 -61 -126 -124
-256 -139 -289 -15 -33 -65 -136 -110 -230 -45 -93 -104 -215 -130 -270 -95
-199 -169 -353 -240 -500 -40 -82 -94 -195 -120 -250 -26 -55 -80 -167 -120
-250 -40 -82 -94 -195 -120 -250 -61 -128 -192 -401 -233 -485 -144 -295 -409
-491 -725 -535 -53 -8 -199 -8 -252 0 -316 45 -573 230 -714 511 -38 78 -174
358 -246 509 -26 55 -79 165 -118 245 -38 80 -95 199 -127 265 -31 66 -88 183
-125 260 -37 77 -93 192 -123 255 -49 102 -92 193 -240 500 -23 47 -42 87 -42
90 -1 3 -37 77 -79 165 -93 191 -174 359 -249 515 -30 63 -88 185 -130 270
-41 85 -99 207 -130 270 -30 63 -90 187 -132 275 -43 88 -97 201 -120 250 -23
50 -75 158 -116 240 -40 83 -73 152 -74 155 -1 3 -24 52 -52 110 -79 163 -188
390 -242 502 -27 57 -80 168 -119 248 -38 80 -97 204 -132 275 -129 268 -132
275 -212 393 -102 152 -241 290 -404 400 -154 103 -403 203 -569 227 -23 3
-52 8 -65 11 -27 5 -316 14 -322 9z"/>
</g>
</svg>
